<?xml version="1.0" encoding="UTF-8" standalone="no"?>
<!DOCTYPE svg PUBLIC "-//W3C//DTD SVG 1.1//EN" "http://www.w3.org/Graphics/SVG/1.1/DTD/svg11.dtd">
<svg width="100%" height="100%" viewBox="0 0 87 47" version="1.1" xmlns="http://www.w3.org/2000/svg" xmlns:xlink="http://www.w3.org/1999/xlink" xml:space="preserve" xmlns:serif="http://www.serif.com/" style="fill-rule:evenodd;clip-rule:evenodd;stroke-linejoin:round;stroke-miterlimit:2;">
    <g transform="matrix(1,0,0,1,-42.7822,-26.9212)">
        <g transform="matrix(0.397285,0,0,0.35316,-197.933,-69.906)">
            <g transform="matrix(2.51708,0,0,2.83158,4.03827,-214.13)">
                <path d="M291.168,203.831L301.015,218.87L285.047,218.87L281.488,213.285L291.168,203.831Z" style="fill:rgb(255,252,252);"/>
            </g>
            <g transform="matrix(2.51708,0,0,2.83158,4.03827,-214.13)">
                <path d="M279.522,210.2L275.545,203.96L270.458,203.96L270.458,218.87L255.797,218.87L255.797,203.543L270.458,189.209L270.458,194.444L275.612,194.444C277.354,194.444 278.842,194.262 280.076,193.898C281.309,193.535 282.253,192.959 282.906,192.171C283.559,191.383 283.886,190.342 283.886,189.049C283.886,187.756 283.559,186.706 282.906,185.898C282.253,185.089 281.309,184.493 280.076,184.11C278.842,183.726 277.354,183.534 275.612,183.534L270.458,183.534L270.458,183.543L270.451,183.536L255.797,197.863L255.797,173.715L279.096,173.715C283.112,173.715 286.626,174.326 289.638,175.548C292.65,176.77 294.997,178.528 296.679,180.821C298.36,183.114 299.201,185.857 299.201,189.049L299.058,191.121L279.522,210.2Z" style="fill:white;"/>
            </g>
            <g transform="matrix(2.51708,0,0,2.83158,194.569,-32.2489)">
                <path d="M177.017,154.658L164.11,154.658L177.017,142.232L177.017,154.658ZM177.017,136.594L163.416,149.689L163.416,109.502L177.017,109.502L177.017,136.594Z" style="fill:white;fill-rule:nonzero;"/>
            </g>
            <g transform="matrix(2.51708,0,0,2.83158,66.0143,-209.313)">
                <path d="M294.691,174.645C295.609,175.252 296.404,175.951 297.093,176.717C298.757,178.57 299.59,180.671 299.59,183.02C299.59,185.552 298.651,187.739 296.772,189.582C294.894,191.425 292.548,192.579 289.736,193.045L289.736,193.349C291.896,193.652 293.859,194.321 295.625,195.353C297.391,196.386 298.797,197.677 299.843,199.226C300.889,200.776 301.412,202.482 301.412,204.345C301.412,206.775 300.501,208.962 298.679,210.906C296.857,212.85 294.354,214.389 291.171,215.524C287.987,216.658 284.36,217.225 280.288,217.225C276.239,217.225 272.628,216.658 269.456,215.524C266.284,214.389 263.787,212.85 261.965,210.906C261.205,210.096 260.604,209.244 260.196,208.332L279.649,189.334L280.288,189.4C281.435,189.4 282.453,189.187 283.342,188.762C284.23,188.336 284.933,187.749 285.451,187C285.968,186.251 286.227,185.41 286.227,184.479C286.227,183.993 286.16,183.537 286.022,183.111L294.691,174.645ZM280.288,208.78C281.593,208.78 282.746,208.542 283.747,208.066C284.748,207.59 285.535,206.932 286.109,206.092C286.683,205.251 286.969,204.304 286.969,203.251C286.969,202.219 286.683,201.302 286.109,200.502C285.535,199.702 284.748,199.069 283.747,198.604C282.746,198.138 281.593,197.905 280.288,197.905C279.028,197.905 277.898,198.133 276.897,198.589C275.896,199.044 275.108,199.672 274.534,200.472C273.961,201.272 273.674,202.198 273.674,203.251C273.674,204.304 273.961,205.246 274.534,206.076C275.108,206.907 275.896,207.565 276.897,208.051C277.898,208.537 279.028,208.78 280.288,208.78Z" style="fill:rgb(127,127,127);"/>
            </g>
            <g transform="matrix(2.51708,-3.14369e-16,0,2.83158,174.537,-211.288)">
                <path d="M227.183,194.159L216.123,204.96C216.132,203.129 216.649,201.45 217.669,199.924C218.704,198.375 220.104,197.083 221.87,196.051C223.469,195.115 225.239,194.479 227.183,194.159Z" style="fill:rgb(127,127,127);"/>
            </g>
            <g transform="matrix(2.51708,-3.14369e-16,0,2.83158,174.537,-211.288)">
                <path d="M227.645,193.708C224.853,193.235 222.546,192.084 220.723,190.264C218.867,188.411 217.939,186.229 217.939,183.718C217.939,181.348 218.771,179.242 220.436,177.399C222.101,175.557 224.384,174.103 227.286,173.04C230.188,171.977 233.484,171.446 237.173,171.446C240.885,171.446 244.198,171.977 247.111,173.04L248.296,173.54L240.529,181.125L240.227,180.938C239.339,180.523 238.321,180.316 237.173,180.316C236.049,180.316 235.042,180.523 234.153,180.938C233.265,181.353 232.567,181.925 232.061,182.655C231.555,183.384 231.302,184.224 231.302,185.176C231.302,186.107 231.555,186.943 232.061,187.682L232.885,188.59L227.645,193.708Z" style="fill:rgb(127,127,127);"/>
            </g>
        </g>
    </g>
</svg>
