<?xml version="1.0" encoding="UTF-8"?>
<svg width="580px" height="272px" viewBox="0 0 580 272" version="1.1" xmlns="http://www.w3.org/2000/svg" xmlns:xlink="http://www.w3.org/1999/xlink">
    <!-- Generator: Sketch 43.2 (39069) - http://www.bohemiancoding.com/sketch -->
    <title>Group</title>
    <desc>Created with Sketch.</desc>
    <defs>
        <filter x="-52.4%" y="-365.9%" width="204.9%" height="831.7%" filterUnits="objectBoundingBox" id="filter-1">
            <feGaussianBlur stdDeviation="50 0" in="SourceGraphic"></feGaussianBlur>
        </filter>
    </defs>
    <g id="Page-1" stroke="none" stroke-width="1" fill="none" fill-rule="evenodd">
        <g id="Holding-Page" transform="translate(-222.000000, -75.000000)">
            <g id="Group" transform="translate(369.000000, 75.000000)">
                <ellipse id="Oval-2" fill-opacity="0.879999995" fill="#000000" filter="url(#filter-1)" cx="143" cy="251.5" rx="143" ry="20.5"></ellipse>
                <g id="Logo">
                    <path d="M99.5087843,5.61050348 C108.452267,-0.878863519 122.949939,-0.880735066 131.883217,5.60122716 L220.080045,69.5966056 C229.016468,76.0808494 233.492553,89.8462845 230.074373,100.352675 L196.398126,203.862662 C192.981418,214.364526 181.253169,222.877969 170.21103,222.877969 L61.1937554,222.877969 C50.1477298,222.877969 38.4248404,214.369052 35.0066601,203.862662 L1.33041283,100.352675 C-2.08629488,89.8508106 2.38543699,76.0829399 11.3297089,69.5930005 L68.7430617,27.9340281 L99.5087843,5.61050348 Z" id="Polygon-2" fill="#ED7E0D"></path>
                    <path d="M152.559142,6.91977963 C161.497383,0.434216308 175.993682,0.437515499 184.927376,6.91977963 L274.671967,72.0382103 C283.610208,78.5237736 288.086669,92.2936556 284.668282,102.800681 L250.400937,208.127512 C246.983509,218.631592 235.25112,227.146831 224.208467,227.146831 L113.278052,227.146831 C102.229779,227.146831 90.5039682,218.634537 87.0855814,208.127512 L52.8182367,102.800681 C49.400808,92.2966008 53.8808576,78.5204745 62.8145517,72.0382103 L152.559142,6.91977963 Z" id="Polygon-2" fill="#FFA000"></path>
                    <path d="M125.781823,9.74157538 C134.718864,3.25688236 149.209279,3.25732296 158.145713,9.74157538 L252.913269,78.5046559 C261.850311,84.9893489 266.327675,98.7527585 262.908092,109.263461 L226.722445,220.486539 C223.305392,230.989465 211.579379,239.503769 200.533339,239.503769 L83.3941977,239.503769 C72.3474068,239.503769 60.6246745,230.997242 57.2050913,220.486539 L21.0194442,109.263461 C17.602391,98.760535 22.0778329,84.9889083 31.0142672,78.5046559 L125.781823,9.74157538 Z" id="Polygon-2" stroke="#2E3438" fill="#FFCA28"></path>
                    <text id="IR" font-family="ArialRoundedMTBold, Arial Rounded MT Bold" font-size="144" font-weight="normal" letter-spacing="-3.32307673" fill="#2E3438">
                        <tspan x="64.2463768" y="194.023256">IR</tspan>
                    </text>
                    <text id="8" font-family="ArialRoundedMTBold, Arial Rounded MT Bold" font-size="36" font-weight="normal" letter-spacing="-0.830769241" fill="#2E3438">
                        <tspan x="201.028986" y="103.406977">8</tspan>
                    </text>
                </g>
            </g>
        </g>
    </g>
</svg>